<?xml version="1.0" ?><svg height="60px" version="1.1" viewBox="0 0 60 60" width="60px" xmlns="http://www.w3.org/2000/svg" xmlns:xlink="http://www.w3.org/1999/xlink"><title/><desc/><defs/><g fill="none" fill-rule="evenodd" id="Page-1" stroke="none" stroke-width="1"><g id="Social_icons" transform="translate(-422.000000, -1955.000000)"><g id="Geo" transform="translate(422.000000, 1955.000000)"><circle cx="30" cy="30" fill="#09BD9F" id="Oval" r="30"/><path d="M19.1303436,29.259614 C21.9811466,35.9557517 30.0345121,48 30.0345121,48 C30.0345121,48 39.3658203,33.3885602 41.2761719,28.308284 L41.2633872,28.308284 C41.7398361,27.002542 42,25.5911245 42,24.1183432 C42,17.4255671 36.627417,12 30,12 C23.372583,12 18,17.4255671 18,24.1183432 C18,25.9563868 18.4052119,27.6988548 19.1303436,29.259614 L19.1303436,29.259614 Z M30,31 C33.8659932,31 37,27.8659932 37,24 C37,20.1340068 33.8659932,17 30,17 C26.1340068,17 23,20.1340068 23,24 C23,27.8659932 26.1340068,31 30,31 L30,31 Z" fill="#FFFFFF" id="Combined-Shape"/></g></g></g></svg>